<?xml version="1.0" standalone="yes"?>
<svg xmlns="http://www.w3.org/2000/svg" width="512" height="512">
<path style="fill:#010101; stroke:none;" d="M0 0L0 512L248 512L248 511C218.313 510.754 184.793 493.737 162 475.789C154.611 469.971 146.612 463.177 141.765 455C139.005 450.345 138.196 444.194 145.005 443.149C155.844 441.484 161.744 452.447 169 458.561C181.865 469.401 197.717 477.82 214 482.116C247.15 490.862 282.681 483.805 313 468.752C324.857 462.866 335.986 456.339 347 449C351.26 446.162 356.489 441.593 361.957 443.862C376.173 449.76 359.081 468.837 353.711 475C336.759 494.452 307.045 509.879 281 511L281 512L512 512L512 0L347 0L347 1C400.351 3.29688 437.745 59.2089 451.975 105C455.003 114.744 457.355 124.883 458.718 135C459.36 139.766 458.758 146.415 460.603 150.816C463.586 157.926 476.504 164.196 481.91 170C495.324 184.4 505.08 201.64 508.996 221C520.907 279.88 471.093 330.44 418 345.421C404.344 349.274 386.156 353.277 372 350.532C360.889 348.377 356.42 332.632 369.004 328.653C374.462 326.927 381.329 328.998 387 329C398.759 329.005 409.739 327.904 421 324.255C466.542 309.496 504.696 257.886 484.127 210C479.071 198.228 470.019 187.412 460 179.518C453.075 174.061 442.142 169.791 438.742 161C434.434 149.865 435.053 135.71 431.848 124C421.735 87.0539 399.127 46.1472 360 34.4383C350.658 31.6428 341.205 32.5523 332 30.3156C327.373 29.1912 323.799 24.5023 319 24.6119C285.937 25.3668 251.165 56.9146 235.065 83C228.818 93.1203 224.55 104.436 221.887 116C220.612 121.54 220.693 128.774 214.956 131.821C204.132 137.569 194.591 117.159 187 112.105C172.349 102.351 153.185 101.743 137 107.696C107.365 118.596 101.454 152.291 104.075 180C104.917 188.899 113.211 202.851 107.296 210.892C101.006 219.443 82.4956 217.749 73 220.428C50.2355 226.851 31.5592 247.018 29.1705 271C24.1004 321.904 89.9915 329.537 126 327.961C135.193 327.558 145.923 323.928 155 325.344C168.04 327.379 173.129 344.042 162.895 352.581C151.332 362.229 126.041 359 112 359C80.2489 359 45.7938 349.324 23.1705 325.91C-11.8934 289.622 -1.20639 235.675 40 209.436C52.3611 201.565 67.3832 194.97 82 193C70.7143 147.19 96.4454 85.709 149 82.0895C171.807 80.5188 186.714 91.406 206 101C220.827 67.7167 242.112 40.5782 275 23.3202C288.83 16.0628 303.866 14.7037 317.91 8.97144C322.118 7.25424 324.922 3.12109 329 1L299 0L232 0L0 0z"/>
<path style="fill:#81afff; stroke:none;" d="M206 101C185.716 86.4739 162.068 77.698 137 83.8989C93.0817 94.7627 68.8834 151.521 82 193C24.3814 197.706 -20.2367 262.035 13.0903 314C34.5001 347.383 76.563 359 114 359C127.876 359 151.06 361.864 162.895 353.146C174.193 344.823 168.001 327.092 155 325.305C144.754 323.896 133.37 327.873 123 327.996C103.182 328.232 81.4094 327.987 63 319.688C38.477 308.633 21.3289 282.394 33.3125 256C40.8195 239.466 55.2732 225.429 73 220.64C81.8041 218.262 101.391 219.307 107.272 211.772C113.751 203.472 105.183 189.087 104.167 180C100.979 151.513 108.803 117.929 139 107.345C154.891 101.775 172.958 102.88 187 112.785C194.88 118.344 204.332 138.315 215.891 131.821C220.674 129.134 220.639 122.724 221.662 118C223.783 108.21 227.224 98.9113 231.756 90C243.882 66.1584 265.7 45.5218 290 34.3094C297.58 30.812 311.438 23.3489 320 25.0386C324.693 25.9647 327.98 29.9492 333 30.6991C342.972 32.1885 352.259 31.8972 362 35.4359C391.599 46.189 411.561 72.9138 423.573 101C429.044 113.793 432.831 127.348 435.389 141C436.643 147.692 436.127 156.926 439.179 163C443.27 171.143 453.386 174.662 460 180.301C473.567 191.868 484.392 206.396 488.335 224C498.576 269.725 457.535 313.802 416 325.572C400.475 329.971 386.365 326.466 371 328.11C362.493 329.02 358.284 338.827 363.009 345.891C369.747 355.966 393.128 350.288 403 348.869C443.203 343.089 485.082 317.214 501.572 279C515.952 245.675 512.941 208.13 490.335 179C485.446 172.7 480.178 166.682 474 161.616C470.027 158.357 463.589 155.398 461.028 150.826C458.767 146.79 459.401 139.586 458.845 135C457.818 126.528 455.717 118.256 453.626 110C446.829 83.1663 433.153 56.0782 413.961 36C393.127 14.2045 363.898 -1.74097 333 0.0432129C325.231 0.491852 322.689 7.30267 315.985 9.44214C302.753 13.6655 289.773 15.8433 277 21.8889C244.314 37.3597 217.596 66.7229 206 101z"/>
<path style="fill:#01ffff; stroke:none;" d="M361 3L362 4L361 3M316 9L317 10L316 9M302 12L303 13L302 12M383 12L384 13L383 12M272 24L273 25L272 24M314 25L315 26L314 25M265 28L266 29L265 28M291 33L292 34L291 33M283 37L284 38L283 37M247 41L248 42L247 41M380 44L381 45L380 44M422 46L423 47L422 46M388 50L389 51L388 50M438 71L439 72L438 71M242 72L243 73L242 72M217 76L218 77L217 76M441 77L442 78L441 77M173 84L174 85L173 84M445 86L446 87L445 86M447 91L448 92L447 91M208 94L209 95L208 94M107 100L108 101L107 100M102 105L103 106L102 105M126 113L127 114L126 113M454 113L455 114L454 113M194 118L195 119L194 118M199 124L200 125L199 124M203 130L204 131L203 130M105 148L106 149L105 148M104 153L105 154L104 153M465 155L466 156L465 155M473 161L474 162L473 161M455 176L456 177L455 176M109 206L110 207L109 206M100 215L101 216L100 215M95 216L96 217L95 216M27 218L28 219L27 218M69 221L70 222L69 221M51 231L52 232L51 231M30 263L31 264L30 263M483 267L484 268L483 267M29 268L30 269L29 268M504 271L505 272L504 271M39 302L40 303L39 302M9 307L10 308L9 307z"/>
<path style="fill:#ffd983; stroke:none;" d="M259 310.529C227.493 317.762 234.712 366.121 269 357.761C299.02 350.441 290.8 303.229 259 310.529z"/>
<path style="fill:#01ffff; stroke:none;" d="M21 324L22 325L21 324M77 324L78 325L77 324M22 325L23 326L22 325M156 325L157 326L156 325M416 325L417 326L416 325z"/>
<path style="fill:#ffbf81; stroke:none;" d="M240 327L241 328L240 327z"/>
<path style="fill:#01ffff; stroke:none;" d="M25 328L26 329L25 328M364 330L365 331L364 330M453 330L454 331L453 330M363 331L364 332L363 331M167 334L168 335L167 334M39 339L40 340L39 339M162 353L163 354L162 353z"/>
<path style="fill:#ffd983; stroke:none;" d="M311 384.696C305.041 386.223 300.726 392.879 295.999 396.497C287.839 402.744 277.313 406.462 267 406.741C249.992 407.2 233.586 395.382 218 389.864C212.009 387.743 202.825 383.462 197.228 388.434C186.682 397.802 204.833 414.892 212 419.957C231.819 433.962 260.826 434.273 283 425.935C296.709 420.78 309.932 412.879 318.815 400.961C323.53 394.635 321.155 382.094 311 384.696z"/>
<path style="fill:#ffbf81; stroke:none;" d="M224 392L225 393L224 392M236 397L237 398L236 397M194 398L195 399L194 398M196 402L197 403L196 402M252 404L253 405L252 404M314 405L315 406L314 405M288 423L289 424L288 423z"/>
<path style="fill:#ffd983; stroke:none;" d="M141.318 444.028C134.692 448.458 143.855 459.477 147.093 463C160.158 477.213 176.701 487.523 194 495.777C243.642 519.465 309.74 520.195 350.961 478.961C356.306 473.614 379.867 445.164 359.996 443.149C353.896 442.53 348.743 447.171 344 450.333C334.927 456.382 325.705 461.91 316 466.892C288.992 480.756 258.319 488.618 228 484.844C205.905 482.094 183.235 471.008 167 455.91C161.003 450.334 151.295 437.356 141.318 444.028z"/>
<path style="fill:#ffbf81; stroke:none;" d="M178 465L179 466L178 465M315 467L316 468L315 467M318 500L319 501L318 500M219 505L220 506L219 505M235 509L236 510L235 509M280 511L281 512L280 511z"/>
</svg>
